# xmcd
#
# Track frame offsets:
#  150
#  21294
#  37518
#  55396
#  82577
#  94604
#  115784
#  129013
#  143381
#  158535
#  175815
#
# Disc length: 2569 seconds
#
# Revision: 0
# Processed by: cddbd v1.5.1PL0 Copyright (c) Steve Scherf et al.
# Submitted via: Collectorz.com_Music_Collector 6.9
#
DISCID=6a0a070b
DTITLE=Kevin Cooke - Ain't The Weather Strange
DYEAR=2004
DGENRE=Blues
TTITLE0=Somebody Tell Me The Truth
TTITLE1=For Love And For Gold
TTITLE2=Ain't The Weather Strange
TTITLE3=K Bars
TTITLE4=Shake Your Money Maker
TTITLE5=Birkenstock Baby
TTITLE6=Just A Little Bit
TTITLE7=Don't Get Me Started
TTITLE8=Don't Let Me In
TTITLE9=Don't Walk Out
TTITLE10=Shuffle The Deck
EXTD=
EXTT0=
EXTT1=
EXTT2=
EXTT3=
EXTT4=
EXTT5=
EXTT6=
EXTT7=
EXTT8=
EXTT9=
EXTT10=
PLAYORDER=
